<svg width="481" height="22" viewBox="0 0 481 22" fill="none" xmlns="http://www.w3.org/2000/svg">
<path fill-rule="evenodd" clip-rule="evenodd" d="M32.2759 6.74481C30.8483 6.74481 29.6069 7.24136 28.5517 8.04826V6.86895H25.2V19.9655H28.6759V11.5862C29.1724 10.9034 30.3517 9.9724 31.8414 9.9724C32.4 9.9724 32.8345 10.0345 33.269 10.1586V6.80688C32.9586 6.74481 32.5862 6.74481 32.2759 6.74481Z" fill="black"/>
<path fill-rule="evenodd" clip-rule="evenodd" d="M1.67586 15.9931C2.54483 16.8 3.91034 17.2965 5.27586 17.2965C6.2069 17.2965 6.95172 16.8621 6.95172 16.1793C6.95172 14.1931 0.62069 14.9379 0.62069 10.6552C0.62069 8.11033 3.04138 6.55861 5.64828 6.55861C7.32414 6.55861 9.18621 7.1793 10.0552 7.86206L8.44138 10.4069C7.75862 9.91033 6.88966 9.53792 5.95862 9.53792C4.96552 9.53792 4.15862 9.91033 4.15862 10.5931C4.15862 12.269 10.4897 11.6483 10.4897 16.1793C10.4897 18.7241 8.0069 20.2138 5.27586 20.2138C3.47586 20.2138 1.55172 19.5931 0 18.4758L1.67586 15.9931Z" fill="black"/>
<path fill-rule="evenodd" clip-rule="evenodd" d="M23.7104 13.3241C23.7104 9.66205 21.1655 6.62067 17.5655 6.62067C13.6552 6.62067 11.1724 9.78618 11.1724 13.4483C11.1724 17.5448 14.0897 20.2758 18 20.2758C20.0483 20.2758 22.0966 19.4069 23.3379 17.9172L21.3517 15.931C20.731 16.6138 19.5517 17.4207 18.0621 17.4207C16.2 17.4207 14.7104 16.1793 14.5241 14.3172H23.5862C23.6483 14.0069 23.7104 13.6965 23.7104 13.3241ZM14.7104 11.7724C14.8966 10.5931 16.0759 9.47584 17.5035 9.47584C18.931 9.47584 19.9862 10.5931 20.1104 11.7724H14.7104Z" fill="black"/>
<path fill-rule="evenodd" clip-rule="evenodd" d="M41.6483 14.8758L45.1862 6.86894H48.8483L42.8276 20.0276H40.4069L34.3862 6.86894H38.0483L41.6483 14.8758Z" fill="black"/>
<path fill-rule="evenodd" clip-rule="evenodd" d="M51.8276 0.724121C53.0689 0.724121 54.1241 1.71722 54.1241 2.9586C54.1241 4.19998 53.0689 5.19309 51.8276 5.19309C50.5862 5.19309 49.531 4.19998 49.531 2.9586C49.531 1.71722 50.5241 0.724121 51.8276 0.724121Z" fill="black"/>
<path d="M53.5034 6.86894H50.0276V19.9655H53.5034V6.86894Z" fill="black"/>
<path fill-rule="evenodd" clip-rule="evenodd" d="M68.0276 17.2965C66.4759 19.3448 64.5517 20.2758 62.069 20.2758C58.0345 20.2758 55.0552 17.2345 55.0552 13.4483C55.0552 9.66205 58.0966 6.62067 62.069 6.62067C64.3035 6.62067 66.3517 7.67584 67.5931 9.22756L65.1103 11.4C64.4276 10.4689 63.3724 9.84825 62.069 9.84825C60.0207 9.84825 58.531 11.462 58.531 13.4483C58.531 15.4965 60.0207 17.0483 62.131 17.0483C63.5586 17.0483 64.6759 16.1793 65.2345 15.3103L68.0276 17.2965Z" fill="black"/>
<path fill-rule="evenodd" clip-rule="evenodd" d="M80.7517 17.9172C79.5103 19.4069 77.4 20.2758 75.4138 20.2758C71.5034 20.2758 68.5862 17.5448 68.5862 13.4483C68.5862 9.78618 71.0689 6.62067 74.9793 6.62067C78.5793 6.62067 81.1241 9.66205 81.1241 13.3241C81.1241 13.6965 81.1241 14.0069 81.062 14.3172H72C72.1862 16.1793 73.6758 17.4207 75.5379 17.4207C77.0276 17.4207 78.2069 16.5517 78.8276 15.931L80.7517 17.9172ZM77.5241 11.7724C77.4 10.5931 76.3448 9.47584 74.9172 9.47584C73.4896 9.47584 72.2482 10.5931 72.1241 11.7724H77.5241Z" fill="black"/>
<path fill-rule="evenodd" clip-rule="evenodd" d="M82.4896 20.0276V6.86894H85.8414V7.92411C86.8345 7.11722 88.0758 6.62067 89.5655 6.62067C91.3655 6.62067 93.0413 7.42756 94.0965 8.73101C94.9655 9.78618 95.462 11.0896 95.462 13.3241V20.0276H91.9862V13.0758C91.9862 11.7724 91.6758 11.0896 91.1793 10.5931C90.7448 10.1586 90 9.84825 89.1931 9.84825C87.7034 9.84825 86.5241 10.7793 86.0276 11.462V19.9655H82.4896V20.0276Z" fill="black"/>
<path fill-rule="evenodd" clip-rule="evenodd" d="M104.462 6.62067C100.303 6.62067 96.8276 10.0345 96.7655 14.2551C96.7655 16.4896 97.6965 18.4758 99.1862 19.9034C99.7448 20.4 100.552 20.462 101.172 20.0276C102.041 19.3448 103.159 18.9724 104.462 18.9724C105.766 18.9724 106.883 19.4069 107.752 20.0276C108.372 20.462 109.179 20.462 109.738 19.9034C111.228 18.4758 112.097 16.5517 112.097 14.3172C112.034 10.0345 108.683 6.62067 104.462 6.62067ZM104.4 18.1034C102.103 18.1034 100.552 16.3655 100.552 14.2551C100.552 12.1448 102.103 10.4069 104.4 10.4069C106.697 10.4069 108.248 12.1448 108.248 14.2551C108.248 16.4276 106.697 18.1034 104.4 18.1034Z" fill="#62D84E"/>
<path fill-rule="evenodd" clip-rule="evenodd" d="M118.986 20.0276H116.379L111.166 6.86894H114.703L117.559 14.3793L120.352 6.86894H123.269L126.062 14.3793L128.917 6.86894H132.393L127.179 20.0276H124.572L121.779 12.5172L118.986 20.0276Z" fill="black"/>
<path d="M132.455 18.5379H132.145V19.0965H131.897V17.5448H132.517C132.766 17.5448 133.014 17.7931 133.014 18.0414C133.014 18.2276 132.89 18.4138 132.703 18.4758L133.076 19.0965H132.828L132.455 18.5379ZM132.145 18.2896H132.517C132.641 18.2896 132.766 18.1655 132.766 18.0414C132.766 17.9172 132.641 17.7931 132.517 17.7931H132.145V18.2896Z" fill="black"/>
<path d="M132.393 16.9241C133.2 16.9241 133.821 17.5448 133.821 18.3517C133.821 19.1586 133.2 19.7793 132.393 19.7793C131.586 19.7793 130.966 19.1586 130.966 18.3517C130.966 17.5448 131.648 16.9241 132.393 16.9241ZM132.393 16.7379C131.462 16.7379 130.779 17.4827 130.779 18.3517C130.779 19.2827 131.524 19.9655 132.393 19.9655C133.324 19.9655 134.007 19.2207 134.007 18.3517C134.069 17.4207 133.324 16.7379 132.393 16.7379Z" fill="black"/>
<line x1="154.141" x2="154.141" y2="22" stroke="#E1E1E1"/>
<g clip-path="url(#clip0_47_835)">
<path d="M184.117 8.70605H180.491V19.7052H177.267V8.70605H173.641V5.60425H184.117V8.70605Z" fill="#2E3D40"/>
<path d="M194.794 13.5217V19.7052H191.769V13.9722C191.769 12.7234 190.983 12.1411 190.016 12.1411C188.918 12.1411 188.143 12.7856 188.143 14.2157V19.7089H185.124V5.60425H188.145V10.5792C188.694 9.83398 189.696 9.35059 191.025 9.35059C193.062 9.35059 194.794 10.8008 194.794 13.5217Z" fill="#2E3D40"/>
<path d="M201.279 17.2882C201.637 17.2988 201.993 17.2364 202.325 17.1048C202.657 16.9732 202.96 16.7752 203.213 16.5228L205.632 17.9126C204.645 19.2822 203.152 19.9872 201.237 19.9872C197.793 19.9872 195.658 17.6709 195.658 14.6771C195.658 11.6833 197.833 9.36707 201.016 9.36707C203.956 9.36707 206.143 11.6449 206.143 14.6863C206.144 15.0922 206.104 15.4972 206.022 15.8948H198.862C199.245 16.9257 200.172 17.2882 201.279 17.2882ZM203.132 13.6261C202.81 12.4579 201.904 12.0349 200.997 12.0349C199.849 12.0349 199.084 12.5989 198.8 13.6261H203.132Z" fill="#2E3D40"/>
<path d="M226.581 9.63257L223.358 19.7034H220.538L218.927 14.3256L217.316 19.7034H214.494L211.271 9.63257H214.494L215.939 15.0323L217.512 9.63257H220.333L221.904 15.0323L223.354 9.63257H226.581Z" fill="#2E3D40"/>
<path d="M226.326 14.6698C226.321 13.613 226.629 12.5783 227.212 11.697C227.796 10.8156 228.627 10.1272 229.602 9.71903C230.577 9.31083 231.651 9.20121 232.688 9.40404C233.725 9.60688 234.679 10.1131 235.428 10.8584C236.177 11.6038 236.689 12.5548 236.897 13.5909C237.105 14.627 237.001 15.7016 236.598 16.6785C236.194 17.6554 235.51 18.4907 234.632 19.0784C233.754 19.6661 232.721 19.9798 231.664 19.9799C230.963 19.9874 230.268 19.8554 229.619 19.5916C228.97 19.3277 228.379 18.9373 227.883 18.4431C227.386 17.9489 226.992 17.3607 226.725 16.7129C226.458 16.0651 226.322 15.3705 226.326 14.6698ZM233.98 14.6698C233.98 13.2397 232.973 12.2894 231.664 12.2894C230.355 12.2894 229.348 13.2361 229.348 14.6698C229.348 16.1035 230.355 17.0502 231.664 17.0502C232.973 17.0502 233.98 16.0999 233.98 14.6698Z" fill="#2E3D40"/>
<path d="M244.185 9.43115V12.8571C242.936 12.6556 241.161 13.1592 241.161 15.1532V19.7052H238.14V9.6344H241.161V11.427C241.573 10.0757 242.914 9.43115 244.185 9.43115Z" fill="#2E3D40"/>
<path d="M244.994 5H248.015V19.7052H244.994V5Z" fill="#2E3D40"/>
<path d="M259.901 5.60425V19.7034H256.879V18.7585C256.215 19.5239 255.231 19.9872 253.878 19.9872C251.238 19.9872 249.062 17.6709 249.062 14.6771C249.062 11.6833 251.238 9.36707 253.878 9.36707C255.228 9.36707 256.215 9.83032 256.879 10.5957V5.60425H259.901ZM256.879 14.6698C256.879 13.1592 255.872 12.2125 254.482 12.2125C253.093 12.2125 252.084 13.1592 252.084 14.6698C252.084 16.1804 253.091 17.1271 254.482 17.1271C255.874 17.1271 256.879 16.1804 256.879 14.6698Z" fill="#2E3D40"/>
<path d="M280.851 9.63257L277.627 19.7034H274.807L273.196 14.3256L271.584 19.7034H268.765L265.542 9.63257H268.765L270.215 15.0323L271.786 9.63257H274.606L276.18 15.0323L277.627 9.63257H280.851Z" fill="#2E3D40"/>
<path d="M280.851 14.6698C280.846 13.6125 281.154 12.5772 281.737 11.6953C282.32 10.8133 283.152 10.1244 284.128 9.71587C285.103 9.3073 286.177 9.19748 287.215 9.40033C288.253 9.60318 289.207 10.1096 289.956 10.8553C290.706 11.601 291.217 12.5525 291.425 13.5891C291.634 14.6258 291.529 15.7009 291.126 16.6782C290.722 17.6556 290.038 18.4911 289.159 19.0788C288.28 19.6666 287.246 19.9802 286.189 19.9799C285.488 19.9874 284.793 19.8554 284.144 19.5916C283.495 19.3277 282.904 18.9373 282.408 18.4431C281.911 17.9489 281.517 17.3607 281.25 16.7129C280.983 16.0651 280.847 15.3705 280.851 14.6698ZM288.505 14.6698C288.505 13.2397 287.498 12.2894 286.189 12.2894C284.88 12.2894 283.871 13.2397 283.871 14.6698C283.871 16.0999 284.878 17.0502 286.187 17.0502C287.496 17.0502 288.505 16.0999 288.505 14.6698Z" fill="#2E3D40"/>
<path d="M298.779 9.43115V12.8571C297.531 12.6556 295.758 13.1592 295.758 15.1532V19.7052H292.737V9.6344H295.758V11.427C296.161 10.0757 297.51 9.43115 298.779 9.43115Z" fill="#2E3D40"/>
<path d="M306.133 19.7052L302.914 15.2539V19.7052H299.887V5.60425H302.914V14.0454L305.935 9.63257H309.46L305.798 14.6698L309.564 19.7052H306.133Z" fill="#2E3D40"/>
<path d="M318.018 16.684C318.018 19.0002 316.004 19.9799 313.827 19.9799C311.813 19.9799 310.282 19.2145 309.496 17.583L312.115 16.0925C312.377 16.8579 312.941 17.2809 313.827 17.2809C314.559 17.2809 314.915 17.0593 314.915 16.6565C314.915 15.5487 309.96 16.1328 309.96 12.6483C309.96 10.451 311.813 9.35242 313.907 9.35242C315.541 9.35242 316.991 10.0848 317.837 11.5094L315.259 12.8992C314.975 12.3755 314.572 12.0129 313.907 12.0129C313.384 12.0129 313.062 12.2144 313.062 12.5769C313.062 13.7231 318.018 12.9578 318.018 16.684Z" fill="#2E3D40"/>
<path d="M338.363 9.63257L335.14 19.7034H332.321L330.709 14.3256L329.098 19.7052H326.276L323.055 9.63257H326.278L327.73 15.0323L329.299 9.63257H332.119L333.69 15.0323L335.14 9.63257H338.363Z" fill="#2E3D40"/>
<path d="M338.678 6.93359C338.678 6.45282 338.869 5.99175 339.209 5.65179C339.549 5.31183 340.01 5.12085 340.491 5.12085C340.971 5.12085 341.433 5.31183 341.773 5.65179C342.112 5.99175 342.303 6.45282 342.303 6.93359C342.303 7.41436 342.112 7.87544 341.773 8.2154C341.433 8.55535 340.971 8.74634 340.491 8.74634C340.01 8.74634 339.549 8.55535 339.209 8.2154C338.869 7.87544 338.678 7.41436 338.678 6.93359ZM338.986 9.63257H342.007V19.7034H338.986V9.63257Z" fill="#2E3D40"/>
<path d="M347.408 12.5348V16.0999C347.408 16.9659 348.154 17.0465 349.483 16.9659V19.7125C345.535 20.108 344.387 18.916 344.387 16.0999V12.5348H342.776V9.63257H344.387V7.71912L347.408 6.81274V9.63257H349.483V12.5348H347.408Z" fill="#2E3D40"/>
<path d="M360.381 13.5217V19.7052H357.36V13.9722C357.36 12.7234 356.575 12.1411 355.608 12.1411C354.509 12.1411 353.735 12.7856 353.735 14.2157V19.7089H350.704V5.60425H353.727V10.5792C354.277 9.83398 355.278 9.35059 356.608 9.35059C358.649 9.35059 360.381 10.8008 360.381 13.5217Z" fill="#2E3D40"/>
<path d="M366.285 16.5027L369.064 14.8914C369.568 16.0596 370.434 16.8451 372.025 16.8451C373.556 16.8451 373.939 16.2408 373.939 15.697C373.939 14.8309 373.133 14.4885 371.009 13.9044C368.885 13.3203 366.86 12.3132 366.86 9.61243C366.86 6.91162 369.156 5.32227 371.593 5.32227C373.909 5.32227 375.722 6.43005 376.749 8.50464L374.03 10.0958C373.547 9.08875 372.882 8.46436 371.593 8.46436C370.586 8.46436 370.082 8.9679 370.082 9.53186C370.082 10.1764 370.425 10.6195 372.62 11.286C374.755 11.9305 377.152 12.6758 377.152 15.6567C377.152 18.3759 374.977 19.9872 371.915 19.9872C368.964 19.9872 367.07 18.5773 366.285 16.5027Z" fill="#2E3D40"/>
<path d="M383.323 17.2882C383.68 17.2988 384.036 17.2364 384.368 17.1048C384.701 16.9732 385.003 16.7752 385.256 16.5228L387.673 17.9126C386.686 19.2822 385.196 19.9872 383.279 19.9872C379.833 19.9872 377.698 17.6709 377.698 14.6771C377.698 11.6833 379.873 9.36707 383.057 9.36707C385.998 9.36707 388.173 11.6449 388.173 14.6863C388.175 15.0922 388.134 15.4972 388.052 15.8948H380.911C381.283 16.9257 382.215 17.2882 383.323 17.2882ZM385.176 13.6261C384.854 12.4579 383.947 12.0349 383.041 12.0349C381.893 12.0349 381.127 12.5989 380.843 13.6261H385.176Z" fill="#2E3D40"/>
<path d="M395.248 9.43115V12.8571C393.998 12.6556 392.225 13.1592 392.225 15.1532V19.7052H389.204V9.6344H392.225V11.427C392.635 10.0757 393.979 9.43115 395.248 9.43115Z" fill="#2E3D40"/>
<path d="M406.771 9.63257L403.043 19.7034H399.619L395.893 9.63257H399.236L401.331 16.0193L403.426 9.63257H406.771Z" fill="#2E3D40"/>
<path d="M407.017 6.93359C407.017 6.45282 407.208 5.99175 407.548 5.65179C407.888 5.31183 408.349 5.12085 408.829 5.12085C409.31 5.12085 409.771 5.31183 410.111 5.65179C410.451 5.99175 410.642 6.45282 410.642 6.93359C410.642 7.41436 410.451 7.87544 410.111 8.2154C409.771 8.55535 409.31 8.74634 408.829 8.74634C408.349 8.74634 407.888 8.55535 407.548 8.2154C407.208 7.87544 407.017 7.41436 407.017 6.93359ZM407.319 9.63257H410.34V19.7034H407.319V9.63257Z" fill="#2E3D40"/>
<path d="M411.406 14.6698C411.406 11.6687 413.682 9.35974 416.745 9.35974C417.664 9.34781 418.57 9.58042 419.37 10.0338C420.17 10.4871 420.835 11.1448 421.297 11.9397L418.658 13.4705C418.316 12.7655 417.591 12.3425 416.703 12.3425C415.394 12.3425 414.427 13.2892 414.427 14.679C414.427 16.0687 415.394 17.0154 416.703 17.0154C417.591 17.0154 418.336 16.5924 418.658 15.8874L421.297 17.3981C420.841 18.1996 420.178 18.8637 419.377 19.3208C418.576 19.7779 417.667 20.0112 416.745 19.9963C413.682 19.9872 411.406 17.6709 411.406 14.6698Z" fill="#2E3D40"/>
<path d="M427.426 17.2882C427.783 17.2988 428.139 17.2364 428.471 17.1048C428.804 16.9732 429.106 16.7752 429.359 16.5228L431.778 17.9126C430.791 19.2822 429.299 19.9872 427.383 19.9872C423.939 19.9872 421.804 17.6709 421.804 14.6771C421.804 11.6833 423.979 9.36707 427.162 9.36707C430.103 9.36707 432.289 11.6449 432.289 14.6863C432.291 15.0922 432.25 15.4972 432.168 15.8948H425.016C425.386 16.9257 426.312 17.2882 427.426 17.2882ZM429.279 13.6261C428.956 12.4579 428.05 12.0349 427.144 12.0349C425.995 12.0349 425.23 12.5989 424.946 13.6261H429.279Z" fill="#2E3D40"/>
<path d="M444.484 5.60425V19.7034H442.074L436.636 12.0496V19.7034H433.413V5.60425H435.83L441.268 13.2599V5.60425H444.484Z" fill="#2E3D40"/>
<path d="M445.43 14.6698C445.424 13.6125 445.733 12.5772 446.316 11.6953C446.899 10.8133 447.731 10.1244 448.706 9.71587C449.682 9.3073 450.756 9.19748 451.794 9.40033C452.832 9.60318 453.786 10.1096 454.535 10.8553C455.285 11.601 455.796 12.5525 456.004 13.5891C456.213 14.6258 456.108 15.7009 455.705 16.6782C455.301 17.6556 454.617 18.4911 453.738 19.0788C452.859 19.6666 451.825 19.9802 450.768 19.9799C450.067 19.9874 449.372 19.8554 448.723 19.5916C448.074 19.3277 447.483 18.9373 446.987 18.4431C446.49 17.9489 446.096 17.3607 445.829 16.7129C445.562 16.0651 445.426 15.3705 445.43 14.6698ZM453.084 14.6698C453.084 13.2397 452.077 12.2894 450.768 12.2894C449.459 12.2894 448.452 13.2361 448.452 14.6698C448.452 16.1035 449.459 17.0502 450.768 17.0502C452.077 17.0502 453.084 16.0999 453.084 14.6698Z" fill="#2E3D40"/>
<path d="M471.215 9.63257L467.993 19.7034H465.171L463.56 14.3256L461.948 19.7034H459.128L455.906 9.63257H459.128L460.579 15.0323L462.15 9.63257H464.962L466.535 15.0323L467.985 9.63257H471.215Z" fill="#2E3D40"/>
<path d="M470.054 18.0847C470.054 17.7059 470.167 17.3356 470.377 17.0206C470.588 16.7057 470.887 16.4602 471.237 16.3152C471.587 16.1703 471.972 16.1323 472.343 16.2062C472.715 16.2801 473.056 16.4626 473.324 16.7304C473.592 16.9983 473.774 17.3395 473.848 17.7111C473.922 18.0826 473.884 18.4677 473.739 18.8177C473.594 19.1676 473.349 19.4668 473.034 19.6772C472.719 19.8877 472.348 20 471.97 20C471.463 19.9966 470.977 19.7938 470.619 19.4353C470.261 19.0769 470.058 18.5916 470.054 18.0847Z" fill="#2E3D40"/>
<path d="M477.347 5.63721H476.518V7.96448H475.82V5.63721H474.976V5H477.357L477.347 5.63721ZM480.988 5V7.96448H480.305V6.13342L479.475 7.43897H479.4L478.571 6.13342V7.96448H477.889V5H478.571L479.446 6.36414L480.305 5H480.988Z" fill="#2E3D40"/>
</g>
<defs>
<clipPath id="clip0_47_835">
<rect width="307.346" height="15" fill="white" transform="translate(173.641 5)"/>
</clipPath>
</defs>
</svg>
