<svg width="308" height="51" viewBox="0 0 308 51" fill="none" xmlns="http://www.w3.org/2000/svg">
<path fill-rule="evenodd" clip-rule="evenodd" d="M32.2759 6.02069C30.8483 6.02069 29.6069 6.51724 28.5517 7.32414V6.14483H25.2V19.2414H28.6759V10.8621C29.1724 10.1793 30.3517 9.24828 31.8414 9.24828C32.4 9.24828 32.8345 9.31035 33.269 9.43448V6.08276C32.9586 6.02069 32.5862 6.02069 32.2759 6.02069Z" fill="black"/>
<path fill-rule="evenodd" clip-rule="evenodd" d="M1.67586 15.269C2.54483 16.0759 3.91034 16.5724 5.27586 16.5724C6.2069 16.5724 6.95172 16.1379 6.95172 15.4552C6.95172 13.469 0.62069 14.2138 0.62069 9.93104C0.62069 7.38621 3.04138 5.83449 5.64828 5.83449C7.32414 5.83449 9.18621 6.45518 10.0552 7.13794L8.44138 9.68276C7.75862 9.18621 6.88966 8.8138 5.95862 8.8138C4.96552 8.8138 4.15862 9.18621 4.15862 9.86897C4.15862 11.5448 10.4897 10.9241 10.4897 15.4552C10.4897 18 8.0069 19.4897 5.27586 19.4897C3.47586 19.4897 1.55172 18.869 0 17.7517L1.67586 15.269Z" fill="black"/>
<path fill-rule="evenodd" clip-rule="evenodd" d="M23.7104 12.6C23.7104 8.93792 21.1655 5.89655 17.5655 5.89655C13.6552 5.89655 11.1724 9.06206 11.1724 12.7241C11.1724 16.8207 14.0897 19.5517 18 19.5517C20.0483 19.5517 22.0966 18.6828 23.3379 17.1931L21.3517 15.2069C20.731 15.8896 19.5517 16.6965 18.0621 16.6965C16.2 16.6965 14.7104 15.4552 14.5241 13.5931H23.5862C23.6483 13.2828 23.7104 12.9724 23.7104 12.6ZM14.7104 11.0483C14.8966 9.86896 16.0759 8.75172 17.5035 8.75172C18.931 8.75172 19.9862 9.86896 20.1104 11.0483H14.7104Z" fill="black"/>
<path fill-rule="evenodd" clip-rule="evenodd" d="M41.6483 14.1517L45.1862 6.14482H48.8483L42.8276 19.3034H40.4069L34.3862 6.14482H38.0483L41.6483 14.1517Z" fill="black"/>
<path fill-rule="evenodd" clip-rule="evenodd" d="M51.8276 0C53.0689 0 54.1241 0.993104 54.1241 2.23448C54.1241 3.47586 53.0689 4.46897 51.8276 4.46897C50.5862 4.46897 49.531 3.47586 49.531 2.23448C49.531 0.993104 50.5241 0 51.8276 0Z" fill="black"/>
<path d="M53.5034 6.14482H50.0276V19.2414H53.5034V6.14482Z" fill="black"/>
<path fill-rule="evenodd" clip-rule="evenodd" d="M68.0276 16.5724C66.4759 18.6207 64.5517 19.5517 62.069 19.5517C58.0345 19.5517 55.0552 16.5103 55.0552 12.7241C55.0552 8.93792 58.0966 5.89655 62.069 5.89655C64.3035 5.89655 66.3517 6.95172 67.5931 8.50344L65.1103 10.6759C64.4276 9.74482 63.3724 9.12413 62.069 9.12413C60.0207 9.12413 58.531 10.7379 58.531 12.7241C58.531 14.7724 60.0207 16.3241 62.131 16.3241C63.5586 16.3241 64.6759 15.4552 65.2345 14.5862L68.0276 16.5724Z" fill="black"/>
<path fill-rule="evenodd" clip-rule="evenodd" d="M80.7517 17.1931C79.5103 18.6828 77.4 19.5517 75.4138 19.5517C71.5034 19.5517 68.5862 16.8207 68.5862 12.7241C68.5862 9.06206 71.0689 5.89655 74.9793 5.89655C78.5793 5.89655 81.1241 8.93792 81.1241 12.6C81.1241 12.9724 81.1241 13.2828 81.062 13.5931H72C72.1862 15.4552 73.6758 16.6965 75.5379 16.6965C77.0276 16.6965 78.2069 15.8276 78.8276 15.2069L80.7517 17.1931ZM77.5241 11.0483C77.4 9.86896 76.3448 8.75172 74.9172 8.75172C73.4896 8.75172 72.2482 9.86896 72.1241 11.0483H77.5241Z" fill="black"/>
<path fill-rule="evenodd" clip-rule="evenodd" d="M82.4896 19.3034V6.14482H85.8414V7.19999C86.8345 6.3931 88.0758 5.89655 89.5655 5.89655C91.3655 5.89655 93.0413 6.70344 94.0965 8.00689C94.9655 9.06206 95.462 10.3655 95.462 12.6V19.3034H91.9862V12.3517C91.9862 11.0483 91.6758 10.3655 91.1793 9.86896C90.7448 9.43448 90 9.12413 89.1931 9.12413C87.7034 9.12413 86.5241 10.0552 86.0276 10.7379V19.2414H82.4896V19.3034Z" fill="black"/>
<path fill-rule="evenodd" clip-rule="evenodd" d="M104.462 5.89655C100.303 5.89655 96.8276 9.31034 96.7655 13.531C96.7655 15.7655 97.6965 17.7517 99.1862 19.1793C99.7448 19.6759 100.552 19.7379 101.172 19.3034C102.041 18.6207 103.159 18.2483 104.462 18.2483C105.766 18.2483 106.883 18.6828 107.752 19.3034C108.372 19.7379 109.179 19.7379 109.738 19.1793C111.228 17.7517 112.097 15.8276 112.097 13.5931C112.034 9.31034 108.683 5.89655 104.462 5.89655ZM104.4 17.3793C102.103 17.3793 100.552 15.6414 100.552 13.531C100.552 11.4207 102.103 9.68275 104.4 9.68275C106.697 9.68275 108.248 11.4207 108.248 13.531C108.248 15.7034 106.697 17.3793 104.4 17.3793Z" fill="#62D84E"/>
<path fill-rule="evenodd" clip-rule="evenodd" d="M118.986 19.3034H116.379L111.166 6.14482H114.703L117.559 13.6552L120.352 6.14482H123.269L126.062 13.6552L128.917 6.14482H132.393L127.179 19.3034H124.572L121.779 11.7931L118.986 19.3034Z" fill="black"/>
<path d="M132.455 17.8138H132.145V18.3724H131.897V16.8207H132.517C132.766 16.8207 133.014 17.069 133.014 17.3172C133.014 17.5035 132.89 17.6897 132.703 17.7517L133.076 18.3724H132.828L132.455 17.8138ZM132.145 17.5655H132.517C132.641 17.5655 132.766 17.4414 132.766 17.3172C132.766 17.1931 132.641 17.069 132.517 17.069H132.145V17.5655Z" fill="black"/>
<path d="M132.393 16.2C133.2 16.2 133.821 16.8207 133.821 17.6276C133.821 18.4345 133.2 19.0552 132.393 19.0552C131.586 19.0552 130.966 18.4345 130.966 17.6276C130.966 16.8207 131.648 16.2 132.393 16.2ZM132.393 16.0138C131.462 16.0138 130.779 16.7586 130.779 17.6276C130.779 18.5586 131.524 19.2414 132.393 19.2414C133.324 19.2414 134.007 18.4966 134.007 17.6276C134.069 16.6966 133.324 16.0138 132.393 16.0138Z" fill="black"/>
<g clip-path="url(#clip0_47_983)">
<path d="M10.4755 39.3213H6.84998V50.3204H3.62549V39.3213H0V36.2195H10.4755V39.3213Z" fill="#2E3D40"/>
<path d="M21.1523 44.137V50.3204H18.1274V44.5874C18.1274 43.3386 17.3419 42.7564 16.3751 42.7564C15.2765 42.7564 14.502 43.4009 14.502 44.8309V50.3241H11.4825V36.2195H14.5038V41.1945C15.0531 40.4492 16.0547 39.9658 17.384 39.9658C19.4202 39.9658 21.1523 41.416 21.1523 44.137Z" fill="#2E3D40"/>
<path d="M27.6379 47.9035C27.9953 47.9141 28.3512 47.8516 28.6836 47.72C29.0161 47.5884 29.3182 47.3904 29.5715 47.1381L31.9904 48.5278C31.0034 49.8975 29.5111 50.6024 27.5958 50.6024C24.1516 50.6024 22.0166 48.2861 22.0166 45.2924C22.0166 42.2986 24.1919 39.9823 27.3743 39.9823C30.3149 39.9823 32.5012 42.2601 32.5012 45.3015C32.5029 45.7075 32.4624 46.1125 32.3804 46.51H25.2209C25.6036 47.5409 26.5302 47.9035 27.6379 47.9035ZM29.491 44.2413C29.1687 43.0731 28.2623 42.6502 27.356 42.6502C26.2079 42.6502 25.4425 43.2141 25.1587 44.2413H29.491Z" fill="#2E3D40"/>
<path d="M52.9395 40.2478L49.7168 50.3186H46.897L45.2856 44.9408L43.6743 50.3186H40.8527L37.63 40.2478H40.8527L42.2974 45.6476L43.8702 40.2478H46.6919L48.2629 45.6476L49.7131 40.2478H52.9395Z" fill="#2E3D40"/>
<path d="M52.685 45.2851C52.6795 44.2282 52.9879 43.1936 53.5711 42.3122C54.1543 41.4309 54.986 40.7425 55.9608 40.3343C56.9356 39.9261 58.0097 39.8165 59.0468 40.0193C60.084 40.2221 61.0376 40.7283 61.7869 41.4737C62.5361 42.219 63.0472 43.17 63.2554 44.2061C63.4635 45.2423 63.3594 46.3169 62.9563 47.2938C62.5531 48.2707 61.869 49.1059 60.9907 49.6936C60.1124 50.2814 59.0793 50.5951 58.0225 50.5951C57.3218 50.6027 56.6266 50.4707 55.9774 50.2068C55.3282 49.943 54.738 49.5526 54.2412 49.0583C53.7444 48.5641 53.351 47.9759 53.0838 47.3281C52.8166 46.6803 52.681 45.9858 52.685 45.2851V45.2851ZM60.3388 45.2851C60.3388 43.855 59.3317 42.9047 58.0225 42.9047C56.7133 42.9047 55.7062 43.8513 55.7062 45.2851C55.7062 46.7188 56.7133 47.6654 58.0225 47.6654C59.3317 47.6654 60.3388 46.7151 60.3388 45.2851V45.2851Z" fill="#2E3D40"/>
<path d="M70.5432 40.0464V43.4723C69.2944 43.2709 67.5201 43.7744 67.5201 45.7684V50.3205H64.4989V40.2496H67.5201V42.0423C67.9321 40.6909 69.2725 40.0464 70.5432 40.0464Z" fill="#2E3D40"/>
<path d="M71.3525 35.6152H74.3738V50.3204H71.3525V35.6152Z" fill="#2E3D40"/>
<path d="M86.2592 36.2195V50.3186H83.2379V49.3738C82.5732 50.1392 81.59 50.6024 80.2368 50.6024C77.5964 50.6024 75.4211 48.2861 75.4211 45.2924C75.4211 42.2986 77.5964 39.9823 80.2368 39.9823C81.5863 39.9823 82.5732 40.4456 83.2379 41.211V36.2195H86.2592ZM83.2379 45.285C83.2379 43.7744 82.2308 42.8278 80.8411 42.8278C79.4513 42.8278 78.4424 43.7744 78.4424 45.285C78.4424 46.7957 79.4495 47.7423 80.8411 47.7423C82.2327 47.7423 83.2379 46.7957 83.2379 45.285V45.285Z" fill="#2E3D40"/>
<path d="M107.21 40.2478L103.986 50.3186H101.166L99.5544 44.9408L97.9431 50.3186H95.1233L91.9006 40.2478H95.1233L96.5735 45.6476L98.1445 40.2478H100.964L102.539 45.6476L103.986 40.2478H107.21Z" fill="#2E3D40"/>
<path d="M107.21 45.2851C107.204 44.2277 107.512 43.1925 108.096 42.3105C108.679 41.4286 109.511 40.7397 110.486 40.3311C111.461 39.9225 112.536 39.8127 113.574 40.0156C114.611 40.2184 115.565 40.7248 116.315 41.4705C117.065 42.2163 117.576 43.1678 117.784 44.2044C117.992 45.241 117.888 46.3162 117.485 47.2935C117.081 48.2708 116.396 49.1063 115.517 49.6941C114.639 50.2819 113.605 50.5955 112.548 50.5951C111.847 50.6027 111.152 50.4707 110.502 50.2068C109.853 49.943 109.263 49.5526 108.766 49.0583C108.27 48.5641 107.876 47.9759 107.609 47.3281C107.342 46.6803 107.206 45.9858 107.21 45.2851V45.2851ZM114.864 45.2851C114.864 43.855 113.857 42.9047 112.548 42.9047C111.238 42.9047 110.229 43.855 110.229 45.2851C110.229 46.7151 111.237 47.6654 112.546 47.6654C113.855 47.6654 114.864 46.7151 114.864 45.2851Z" fill="#2E3D40"/>
<path d="M125.138 40.0464V43.4723C123.889 43.2709 122.117 43.7744 122.117 45.7684V50.3205H119.095V40.2496H122.117V42.0423C122.52 40.6909 123.869 40.0464 125.138 40.0464Z" fill="#2E3D40"/>
<path d="M132.491 50.3204L129.272 45.8692V50.3204H126.246V36.2195H129.272V44.6607L132.294 40.2478H135.818L132.156 45.285L135.923 50.3204H132.491Z" fill="#2E3D40"/>
<path d="M144.377 47.2992C144.377 49.6155 142.363 50.5951 140.186 50.5951C138.171 50.5951 136.641 49.8297 135.855 48.1983L138.474 46.7078C138.735 47.4732 139.299 47.8961 140.186 47.8961C140.918 47.8961 141.273 47.6746 141.273 47.2717C141.273 46.164 136.318 46.7481 136.318 43.2636C136.318 41.0663 138.171 39.9677 140.266 39.9677C141.899 39.9677 143.35 40.7001 144.196 42.1246L141.617 43.5144C141.334 42.9907 140.931 42.6282 140.266 42.6282C139.742 42.6282 139.42 42.8296 139.42 43.1922C139.42 44.3384 144.377 43.573 144.377 47.2992Z" fill="#2E3D40"/>
<path d="M164.722 40.2478L161.499 50.3186H158.679L157.068 44.9408L155.457 50.3204H152.635L149.414 40.2478H152.637L154.089 45.6476L155.658 40.2478H158.478L160.049 45.6476L161.499 40.2478H164.722Z" fill="#2E3D40"/>
<path d="M165.037 37.5488C165.037 37.0681 165.228 36.607 165.568 36.267C165.908 35.9271 166.369 35.7361 166.849 35.7361C167.33 35.7361 167.791 35.9271 168.131 36.267C168.471 36.607 168.662 37.0681 168.662 37.5488C168.662 38.0296 168.471 38.4907 168.131 38.8306C167.791 39.1706 167.33 39.3616 166.849 39.3616C166.369 39.3616 165.908 39.1706 165.568 38.8306C165.228 38.4907 165.037 38.0296 165.037 37.5488ZM165.344 40.2478H168.365V50.3186H165.344V40.2478Z" fill="#2E3D40"/>
<path d="M173.767 43.15V46.7151C173.767 47.5812 174.512 47.6618 175.842 47.5812V50.3278C171.894 50.7233 170.746 49.5313 170.746 46.7151V43.15H169.135V40.2478H170.746V38.3344L173.767 37.428V40.2478H175.842V43.15H173.767Z" fill="#2E3D40"/>
<path d="M186.74 44.137V50.3204H183.719V44.5874C183.719 43.3386 182.933 42.7564 181.967 42.7564C180.868 42.7564 180.093 43.4009 180.093 44.8309V50.3241H177.063V36.2195H180.086V41.1945C180.635 40.4492 181.637 39.9658 182.966 39.9658C185.008 39.9658 186.74 41.416 186.74 44.137Z" fill="#2E3D40"/>
<path d="M192.643 47.1179L195.423 45.5066C195.927 46.6748 196.793 47.4603 198.384 47.4603C199.915 47.4603 200.297 46.8561 200.297 46.3123C200.297 45.4462 199.492 45.1038 197.368 44.5197C195.244 43.9356 193.218 42.9285 193.218 40.2277C193.218 37.5269 195.515 35.9375 197.952 35.9375C200.268 35.9375 202.081 37.0453 203.108 39.1199L200.389 40.7111C199.905 39.704 199.241 39.0796 197.952 39.0796C196.945 39.0796 196.441 39.5831 196.441 40.1471C196.441 40.7916 196.783 41.2348 198.979 41.9013C201.114 42.5458 203.511 43.291 203.511 46.272C203.511 48.9911 201.335 50.6024 198.274 50.6024C195.322 50.6024 193.429 49.1925 192.643 47.1179Z" fill="#2E3D40"/>
<path d="M209.681 47.9035C210.039 47.9141 210.395 47.8516 210.727 47.72C211.06 47.5884 211.362 47.3904 211.615 47.1381L214.032 48.5278C213.045 49.8975 211.555 50.6024 209.637 50.6024C206.191 50.6024 204.056 48.2861 204.056 45.2924C204.056 42.2986 206.232 39.9823 209.416 39.9823C212.357 39.9823 214.532 42.2601 214.532 45.3015C214.534 45.7075 214.493 46.1125 214.411 46.51H207.27C207.642 47.5409 208.574 47.9035 209.681 47.9035ZM211.534 44.2413C211.212 43.0731 210.306 42.6502 209.399 42.6502C208.251 42.6502 207.486 43.2141 207.202 44.2413H211.534Z" fill="#2E3D40"/>
<path d="M221.607 40.0464V43.4723C220.356 43.2709 218.584 43.7744 218.584 45.7684V50.3205H215.563V40.2496H218.584V42.0423C218.994 40.6909 220.338 40.0464 221.607 40.0464Z" fill="#2E3D40"/>
<path d="M233.13 40.2478L229.402 50.3186H225.978L222.252 40.2478H225.595L227.69 46.6345L229.785 40.2478H233.13Z" fill="#2E3D40"/>
<path d="M233.375 37.5488C233.375 37.0681 233.566 36.607 233.906 36.267C234.246 35.9271 234.707 35.7361 235.188 35.7361C235.669 35.7361 236.13 35.9271 236.47 36.267C236.81 36.607 237.001 37.0681 237.001 37.5488C237.001 38.0296 236.81 38.4907 236.47 38.8306C236.13 39.1706 235.669 39.3616 235.188 39.3616C234.707 39.3616 234.246 39.1706 233.906 38.8306C233.566 38.4907 233.375 38.0296 233.375 37.5488V37.5488ZM233.677 40.2478H236.699V50.3186H233.677V40.2478Z" fill="#2E3D40"/>
<path d="M237.764 45.285C237.764 42.2839 240.04 39.975 243.104 39.975C244.023 39.9631 244.929 40.1957 245.729 40.649C246.529 41.1023 247.194 41.7601 247.656 42.5549L245.017 44.0857C244.675 43.3807 243.95 42.9578 243.062 42.9578C241.752 42.9578 240.786 43.9044 240.786 45.2942C240.786 46.684 241.752 47.6306 243.062 47.6306C243.95 47.6306 244.695 47.2077 245.017 46.5027L247.656 48.0133C247.2 48.8148 246.536 49.4789 245.736 49.936C244.935 50.3932 244.026 50.6265 243.104 50.6116C240.04 50.6024 237.764 48.2861 237.764 45.285Z" fill="#2E3D40"/>
<path d="M253.784 47.9035C254.142 47.9141 254.497 47.8516 254.83 47.72C255.162 47.5884 255.464 47.3904 255.718 47.1381L258.137 48.5278C257.15 49.8975 255.657 50.6024 253.742 50.6024C250.298 50.6024 248.163 48.2861 248.163 45.2924C248.163 42.2986 250.338 39.9823 253.521 39.9823C256.461 39.9823 258.647 42.2601 258.647 45.3015C258.649 45.7075 258.609 46.1125 258.527 46.51H251.374C251.744 47.5409 252.671 47.9035 253.784 47.9035ZM255.637 44.2413C255.315 43.0731 254.409 42.6502 253.502 42.6502C252.354 42.6502 251.589 43.2141 251.305 44.2413H255.637Z" fill="#2E3D40"/>
<path d="M270.842 36.2195V50.3186H268.433L262.994 42.6648V50.3186H259.772V36.2195H262.189L267.627 43.8751V36.2195H270.842Z" fill="#2E3D40"/>
<path d="M271.789 45.2851C271.783 44.2277 272.091 43.1925 272.675 42.3105C273.258 41.4286 274.09 40.7397 275.065 40.3311C276.04 39.9225 277.115 39.8127 278.153 40.0156C279.19 40.2184 280.144 40.7248 280.894 41.4705C281.644 42.2163 282.155 43.1678 282.363 44.2044C282.571 45.241 282.467 46.3162 282.063 47.2935C281.66 48.2708 280.975 49.1063 280.096 49.6941C279.217 50.2819 278.184 50.5955 277.126 50.5951C276.426 50.6027 275.731 50.4707 275.081 50.2068C274.432 49.943 273.842 49.5526 273.345 49.0583C272.848 48.5641 272.455 47.9759 272.188 47.3281C271.921 46.6803 271.785 45.9858 271.789 45.2851V45.2851ZM279.443 45.2851C279.443 43.855 278.436 42.9047 277.126 42.9047C275.817 42.9047 274.81 43.8513 274.81 45.2851C274.81 46.7188 275.817 47.6654 277.126 47.6654C278.436 47.6654 279.443 46.7151 279.443 45.2851V45.2851Z" fill="#2E3D40"/>
<path d="M297.574 40.2478L294.351 50.3186H291.53L289.918 44.9408L288.307 50.3186H285.487L282.264 40.2478H285.487L286.937 45.6476L288.508 40.2478H291.321L292.894 45.6476L294.344 40.2478H297.574Z" fill="#2E3D40"/>
<path d="M296.413 48.7C296.413 48.3212 296.525 47.9509 296.736 47.6359C296.946 47.3209 297.245 47.0754 297.595 46.9305C297.945 46.7855 298.33 46.7476 298.702 46.8215C299.073 46.8954 299.415 47.0778 299.683 47.3457C299.95 47.6135 300.133 47.9548 300.207 48.3263C300.281 48.6978 300.243 49.0829 300.098 49.4329C299.953 49.7829 299.707 50.082 299.392 50.2925C299.077 50.5029 298.707 50.6153 298.328 50.6153C297.821 50.6119 297.336 50.409 296.978 50.0506C296.619 49.6921 296.416 49.2069 296.413 48.7V48.7Z" fill="#2E3D40"/>
<path d="M303.706 36.2525H302.877V38.5797H302.179V36.2525H301.335V35.6152H303.715L303.706 36.2525ZM307.346 35.6152V38.5797H306.663V36.7487L305.834 38.0542H305.759L304.929 36.7487V38.5797H304.248V35.6152H304.929L305.804 36.9794L306.663 35.6152H307.346Z" fill="#2E3D40"/>
</g>
<defs>
<clipPath id="clip0_47_983">
<rect width="307.346" height="15" fill="white" transform="translate(0 35.6152)"/>
</clipPath>
</defs>
</svg>
