<svg width="138" height="40" viewBox="0 0 138 40" fill="none" xmlns="http://www.w3.org/2000/svg">
<g clip-path="url(#clip0_575_10760)">
<path fill-rule="evenodd" clip-rule="evenodd" d="M27.4246 27.4246L30.9602 30.9601C28.1552 33.7651 24.2802 35.5 20 35.5C11.4396 35.5 4.5 28.5604 4.5 20C4.5 15.7197 6.2349 11.8447 9.03984 9.03979L12.5754 12.5753C10.6753 14.4755 9.5 17.1005 9.5 20C9.5 21.3024 9.73714 22.5494 10.1706 23.7003C10.7427 21.569 12.6881 20 15 20C17.7614 20 20 22.2386 20 25C20 27.3118 18.431 29.2572 16.2998 29.8294C17.4506 30.2628 18.6976 30.5 20 30.5C22.8995 30.5 25.5245 29.3247 27.4246 27.4246Z" fill="black"/>
<path fill-rule="evenodd" clip-rule="evenodd" d="M20 4.5C15.7197 4.5 11.8447 6.2349 9.03979 9.03984L12.5753 12.5754C14.4755 10.6753 17.1005 9.5 20 9.5C21.3024 9.5 22.5494 9.73714 23.7003 10.1706C21.569 10.7427 20 12.6881 20 15C20 17.7614 22.2385 20 25 20C27.3118 20 29.2572 18.431 29.8294 16.2997C30.2628 17.4505 30.5 18.6976 30.5 20C30.5 22.8995 29.3247 25.5245 27.4246 27.4246L30.9601 30.9602C33.7651 28.1552 35.5 24.2802 35.5 20C35.5 11.4396 28.5604 4.5 20 4.5Z" fill="#62D84E"/>
</g>
<path d="M51.672 26.4079C51.672 25.7599 52.296 25.4239 53.064 25.4239C53.952 25.4239 54.624 25.8799 54.984 26.6479L57.624 25.2079C56.688 23.5519 55.008 22.6639 53.064 22.6639C50.592 22.6639 48.504 24.0319 48.504 26.4799C48.504 30.7039 54.696 29.7439 54.696 31.4959C54.696 32.1919 54.024 32.5279 53.04 32.5279C51.84 32.5279 51.024 31.9519 50.688 30.9679L48 32.4799C48.864 34.3279 50.64 35.3359 53.04 35.3359C55.608 35.3359 57.864 34.0879 57.864 31.4959C57.864 27.0799 51.672 28.1839 51.672 26.4079Z" fill="black"/>
<path d="M67.7751 22.9999V29.4799C67.7751 31.5679 66.6471 32.4559 65.1351 32.4559C63.7431 32.4559 62.7591 31.6159 62.7591 29.9839V22.9999H59.6631V30.3679C59.6631 33.5599 61.6551 35.3359 64.1991 35.3359C65.8071 35.3359 67.0551 34.7359 67.7751 33.6559V34.9999H70.8711V22.9999H67.7751Z" fill="black"/>
<path d="M80.6906 22.6639C78.9386 22.6639 77.6666 23.3119 76.8026 24.4159V22.9999H73.7066V39.7999H76.8026V33.5839C77.6666 34.6879 78.9386 35.3359 80.6906 35.3359C83.9066 35.3359 86.5466 32.5759 86.5466 28.9999C86.5466 25.4239 83.9066 22.6639 80.6906 22.6639ZM80.1146 32.3839C78.2186 32.3839 76.8026 31.0159 76.8026 28.9999C76.8026 26.9839 78.2186 25.6159 80.1146 25.6159C82.0346 25.6159 83.4506 26.9839 83.4506 28.9999C83.4506 31.0159 82.0346 32.3839 80.1146 32.3839Z" fill="black"/>
<path d="M95.7141 22.6639C93.9621 22.6639 92.6901 23.3119 91.8261 24.4159V22.9999H88.7301V39.7999H91.8261V33.5839C92.6901 34.6879 93.9621 35.3359 95.7141 35.3359C98.9301 35.3359 101.57 32.5759 101.57 28.9999C101.57 25.4239 98.9301 22.6639 95.7141 22.6639ZM95.1381 32.3839C93.2421 32.3839 91.8261 31.0159 91.8261 28.9999C91.8261 26.9839 93.2421 25.6159 95.1381 25.6159C97.0581 25.6159 98.4741 26.9839 98.4741 28.9999C98.4741 31.0159 97.0581 32.3839 95.1381 32.3839Z" fill="black"/>
<path d="M109.466 35.3359C112.994 35.3359 115.826 32.5759 115.826 28.9999C115.826 25.4239 112.994 22.6639 109.466 22.6639C105.938 22.6639 103.13 25.4239 103.13 28.9999C103.13 32.5759 105.938 35.3359 109.466 35.3359ZM109.466 32.3119C107.642 32.3119 106.226 30.9439 106.226 28.9999C106.226 27.0559 107.642 25.6879 109.466 25.6879C111.314 25.6879 112.729 27.0559 112.729 28.9999C112.729 30.9439 111.314 32.3119 109.466 32.3119Z" fill="black"/>
<path d="M121.1 25.0639V22.9999H118.004V34.9999H121.1V29.2639C121.1 26.7439 123.14 26.0239 124.748 26.2159V22.7599C123.236 22.7599 121.724 23.4319 121.1 25.0639Z" fill="black"/>
<path d="M133.75 25.9759V22.9999H131.038V19.6399L127.942 20.5759V22.9999H125.854V25.9759H127.942V30.9679C127.942 34.2079 129.406 35.4799 133.75 34.9999V32.1919C131.974 32.2879 131.038 32.2639 131.038 30.9679V25.9759H133.75Z" fill="black"/>
<path d="M50.142 9.98808C50.142 9.61008 50.506 9.41408 50.954 9.41408C51.472 9.41408 51.864 9.68008 52.074 10.1281L53.614 9.28808C53.068 8.32208 52.088 7.80408 50.954 7.80408C49.512 7.80408 48.294 8.60208 48.294 10.0301C48.294 12.4941 51.906 11.9341 51.906 12.9561C51.906 13.3621 51.514 13.5581 50.94 13.5581C50.24 13.5581 49.764 13.2221 49.568 12.6481L48 13.5301C48.504 14.6081 49.54 15.1961 50.94 15.1961C52.438 15.1961 53.754 14.4681 53.754 12.9561C53.754 10.3801 50.142 11.0241 50.142 9.98808Z" fill="black"/>
<path d="M56.3457 12.2421H61.6237C61.6658 12.0041 61.6937 11.7661 61.6937 11.5001C61.6937 9.44208 60.2237 7.80408 58.1517 7.80408C55.9537 7.80408 54.4557 9.41408 54.4557 11.5001C54.4557 13.5861 55.9397 15.1961 58.2917 15.1961C59.6357 15.1961 60.6858 14.6501 61.3438 13.6981L59.8877 12.8581C59.5797 13.2641 59.0197 13.5581 58.3197 13.5581C57.3678 13.5581 56.5977 13.1661 56.3457 12.2421ZM56.3177 10.8421C56.5278 9.94608 57.1857 9.42808 58.1517 9.42808C58.9077 9.42808 59.6637 9.83408 59.8877 10.8421H56.3177Z" fill="black"/>
<path d="M64.7605 9.20408V8.00008H62.9545V15.0001H64.7605V11.6541C64.7605 10.1841 65.9505 9.76408 66.8885 9.87608V7.86008C66.0065 7.86008 65.1245 8.25208 64.7605 9.20408Z" fill="black"/>
<path d="M72.5507 8.00008L70.8428 12.9001L69.1488 8.00008H67.1607L69.8207 15.0001H71.8787L74.5387 8.00008H72.5507Z" fill="black"/>
<path d="M76.3056 7.16008C76.9216 7.16008 77.4256 6.65608 77.4256 6.05408C77.4256 5.45208 76.9216 4.93408 76.3056 4.93408C75.7036 4.93408 75.1996 5.45208 75.1996 6.05408C75.1996 6.65608 75.7036 7.16008 76.3056 7.16008ZM75.4096 15.0001H77.2156V8.00008H75.4096V15.0001Z" fill="black"/>
<path d="M82.2006 15.1961C83.5726 15.1961 84.7626 14.4681 85.3646 13.3761L83.7966 12.4801C83.5166 13.0541 82.9146 13.4041 82.1866 13.4041C81.1086 13.4041 80.3106 12.6061 80.3106 11.5001C80.3106 10.3801 81.1086 9.58208 82.1866 9.58208C82.9006 9.58208 83.5026 9.94608 83.7826 10.5201L85.3366 9.61008C84.7626 8.53208 83.5726 7.80408 82.2006 7.80408C80.0726 7.80408 78.5046 9.41408 78.5046 11.5001C78.5046 13.5861 80.0726 15.1961 82.2006 15.1961Z" fill="black"/>
<path d="M87.7364 12.2421H93.0144C93.0564 12.0041 93.0844 11.7661 93.0844 11.5001C93.0844 9.44208 91.6144 7.80408 89.5424 7.80408C87.3444 7.80408 85.8464 9.41408 85.8464 11.5001C85.8464 13.5861 87.3304 15.1961 89.6824 15.1961C91.0264 15.1961 92.0764 14.6501 92.7344 13.6981L91.2784 12.8581C90.9704 13.2641 90.4104 13.5581 89.7104 13.5581C88.7584 13.5581 87.9884 13.1661 87.7364 12.2421ZM87.7084 10.8421C87.9184 9.94608 88.5764 9.42808 89.5424 9.42808C90.2984 9.42808 91.0544 9.83408 91.2784 10.8421H87.7084Z" fill="black"/>
<path d="M98.2371 7.80408C97.2991 7.80408 96.5711 8.15408 96.1511 8.78408V8.00008H94.3451V15.0001H96.1511V11.2201C96.1511 10.0021 96.8091 9.48408 97.6911 9.48408C98.5031 9.48408 99.0771 9.97408 99.0771 10.9261V15.0001H100.883V10.7021C100.883 8.84008 99.7211 7.80408 98.2371 7.80408Z" fill="black"/>
<path d="M105.757 15.1961C107.815 15.1961 109.467 13.5861 109.467 11.5001C109.467 9.41408 107.815 7.80408 105.757 7.80408C103.699 7.80408 102.061 9.41408 102.061 11.5001C102.061 13.5861 103.699 15.1961 105.757 15.1961ZM105.757 13.4321C104.693 13.4321 103.867 12.6341 103.867 11.5001C103.867 10.3661 104.693 9.56808 105.757 9.56808C106.835 9.56808 107.661 10.3661 107.661 11.5001C107.661 12.6341 106.835 13.4321 105.757 13.4321Z" fill="black"/>
<path d="M118.346 8.00008L117.156 12.3121L115.882 8.00008H114.174L112.9 12.2981L111.71 8.00008H109.792L112.018 15.0001H113.74L115.028 10.7581L116.316 15.0001H118.038L120.264 8.00008H118.346Z" fill="black"/>
<defs>
<clipPath id="clip0_575_10760">
<rect width="32" height="32" fill="white" transform="translate(4 4)"/>
</clipPath>
</defs>
</svg>
